<?xml version="1.0" encoding="utf-8"?>
<svg xmlns="http://www.w3.org/2000/svg">
  <defs>
    <symbol id="model" viewBox="0 0 24 24" fill="currentColor">
      <path d="M15 17a1 1 0 1 0 0 2 1 1 0 0 0 0-2Zm-6 0H6a1 1 0 0 0 0 2h3a1 1 0 0 0 0-2Zm9 0a1 1 0 1 0 0 2 1 1 0 0 0 0-2Zm-3-6a1 1 0 1 0 0 2 1 1 0 0 0 0-2Zm-6 0H6a1 1 0 0 0 0 2h3a1 1 0 0 0 0-2Zm9-6a1 1 0 1 0 0 2 1 1 0 0 0 0-2Zm0 6a1 1 0 1 0 0 2 1 1 0 0 0 0-2Zm4-6a3 3 0 0 0-3-3H5a3 3 0 0 0-3 3v2a3 3 0 0 0 .78 2A3 3 0 0 0 2 11v2a3 3 0 0 0 .78 2A3 3 0 0 0 2 17v2a3 3 0 0 0 3 3h14a3 3 0 0 0 3-3v-2a3 3 0 0 0-.78-2 3 3 0 0 0 .78-2v-2a3 3 0 0 0-.78-2A3 3 0 0 0 22 7V5Zm-2 14a1 1 0 0 1-1 1H5a1 1 0 0 1-1-1v-2a1 1 0 0 1 1-1h14a1 1 0 0 1 1 1v2Zm0-6a1 1 0 0 1-1 1H5a1 1 0 0 1-1-1v-2a1 1 0 0 1 1-1h14a1 1 0 0 1 1 1v2Zm0-6a1 1 0 0 1-1 1H5a1 1 0 0 1-1-1V5a1 1 0 0 1 1-1h14a1 1 0 0 1 1 1v2Zm-5-2a1 1 0 1 0 0 2 1 1 0 0 0 0-2ZM9 5H6a1 1 0 0 0 0 2h3a1 1 0 0 0 0-2Z"/>
    </symbol>
	<symbol id="view" viewBox="0 0 24 24" fill="currentColor">
      <path d="M 1.660156 3.914062 L 1.355469 4.1875 L 1.328125 11.855469 C 1.308594 18.59375 1.320312 19.554688 1.449219 19.796875 C 1.753906 20.390625 1.160156 20.359375 12.046875 20.359375 C 22.925781 20.359375 22.339844 20.390625 22.644531 19.800781 C 22.859375 19.386719 22.859375 4.613281 22.644531 4.199219 C 22.339844 3.609375 22.933594 3.640625 11.960938 3.640625 L 1.964844 3.640625 L 1.660156 3.914062 M 6.070312 5.976562 L 6.070312 7.285156 L 2.335938 7.285156 L 2.335938 4.667969 L 6.070312 4.667969 L 6.070312 5.976562 M 11.488281 5.976562 L 11.488281 7.285156 L 7.285156 7.285156 L 7.285156 4.667969 L 11.488281 4.667969 L 11.488281 5.976562 M 16.808594 5.976562 L 16.808594 7.285156 L 12.605469 7.285156 L 12.605469 4.667969 L 16.808594 4.667969 L 16.808594 5.976562 M 21.757812 5.976562 L 21.757812 7.285156 L 17.929688 7.285156 L 17.929688 4.667969 L 21.757812 4.667969 L 21.757812 5.976562 M 2.542969 5.953125 L 2.566406 6.957031 L 5.835938 6.957031 L 5.890625 4.949219 L 2.515625 4.949219 L 2.542969 5.953125 M 7.75 5.976562 L 7.75 7.003906 L 11.019531 7.003906 L 11.019531 4.949219 L 7.75 4.949219 L 7.75 5.976562 M 13.019531 5.074219 C 12.996094 5.140625 12.984375 5.59375 13 6.078125 L 13.027344 6.957031 L 14.683594 6.984375 L 16.34375 7.007812 L 16.34375 4.949219 L 14.707031 4.949219 C 13.433594 4.949219 13.058594 4.976562 13.019531 5.074219 M 18.210938 5.976562 L 18.210938 7.007812 L 19.867188 6.984375 L 21.523438 6.957031 L 21.523438 4.996094 L 19.867188 4.96875 L 18.210938 4.945312 L 18.210938 5.976562 M 6.070312 9.945312 L 6.070312 11.394531 L 2.335938 11.394531 L 2.335938 8.496094 L 6.070312 8.496094 L 6.070312 9.945312 M 11.488281 9.945312 L 11.488281 11.394531 L 7.285156 11.394531 L 7.285156 8.496094 L 11.488281 8.496094 L 11.488281 9.945312 M 16.808594 9.945312 L 16.808594 11.394531 L 12.605469 11.394531 L 12.605469 8.496094 L 16.808594 8.496094 L 16.808594 9.945312 M 21.757812 9.945312 L 21.757812 11.394531 L 17.929688 11.394531 L 17.929688 8.496094 L 21.757812 8.496094 L 21.757812 9.945312 M 2.5625 8.992188 C 2.535156 9.0625 2.527344 9.535156 2.542969 10.046875 L 2.566406 10.972656 L 5.835938 10.972656 L 5.835938 8.917969 L 4.222656 8.894531 C 2.941406 8.871094 2.601562 8.894531 2.5625 8.992188 M 7.816406 8.933594 C 7.78125 8.96875 7.75 9.453125 7.75 10.007812 L 7.75 11.019531 L 11.027344 11.019531 L 10.972656 8.917969 L 9.425781 8.894531 C 8.574219 8.878906 7.851562 8.894531 7.816406 8.933594 M 6.070312 14.054688 L 6.070312 15.503906 L 2.335938 15.503906 L 2.335938 12.605469 L 6.070312 12.605469 L 6.070312 14.054688 M 11.488281 14.054688 L 11.488281 15.503906 L 7.285156 15.503906 L 7.285156 12.605469 L 11.488281 12.605469 L 11.488281 14.054688 M 16.808594 14.054688 L 16.808594 15.503906 L 12.605469 15.503906 L 12.605469 12.605469 L 16.808594 12.605469 L 16.808594 14.054688 M 21.757812 14.054688 L 21.757812 15.503906 L 17.929688 15.503906 L 17.929688 12.605469 L 21.757812 12.605469 L 21.757812 14.054688 M 2.542969 14.078125 L 2.566406 15.082031 L 5.835938 15.082031 L 5.890625 13.074219 L 2.515625 13.074219 L 2.542969 14.078125 M 6.070312 18.023438 L 6.070312 19.332031 L 2.335938 19.332031 L 2.335938 16.714844 L 6.070312 16.714844 L 6.070312 18.023438 M 11.488281 18.023438 L 11.488281 19.332031 L 7.285156 19.332031 L 7.285156 16.714844 L 11.488281 16.714844 L 11.488281 18.023438 M 16.808594 18.023438 L 16.808594 19.332031 L 12.605469 19.332031 L 12.605469 16.714844 L 16.808594 16.714844 L 16.808594 18.023438 M 21.757812 18.023438 L 21.757812 19.332031 L 17.929688 19.332031 L 17.929688 16.714844 L 21.757812 16.714844 L 21.757812 18.023438 M 2.542969 18.09375 L 2.566406 19.097656 L 5.835938 19.097656 L 5.890625 17.089844 L 2.515625 17.089844 L 2.542969 18.09375"/>
    </symbol>
	<symbol id="cube" viewBox="0 0 24 24" fill="currentColor">
      <path d="M11.016.848c-.309.168-1.996 1.082-3.75 2.035-1.754.953-3.504 1.902-3.891 2.11-.758.41-1.023.66-1.313 1.237-.25.493-.292 10.739-.05 11.325a2.36 2.36 0 0 0 1.015 1.125 316.4 316.4 0 0 0 3.301 1.851c.922.504 2.059 1.14 3.938 2.211 1.636.93 2.57.836 4.312-.43.05-.039.41-.238.797-.44 5.395-2.872 6.133-3.31 6.484-3.868l.266-.414V6.559l-.223-.348c-.234-.363-.625-.746-.949-.922a14024.687 14024.687 0 0 1-4.312-2.406c-.465-.258-1.559-.871-2.434-1.367C12.266.422 11.941.352 11.016.848m1.437 1.218c.293.176 2.442 1.383 5.594 3.133.723.403 1.496.832 1.715.961l.406.23-.64.38c-.743.44-.872.578-.872.937 0 .691.61.8 1.465.262l.598-.38v4.88c0 4.523-.012 4.886-.164 5.023-.133.125-5.82 3.246-7.336 4.031l-.422.215-.024-.484c-.05-1.086-.246-1.473-.742-1.473-.508 0-.687.313-.687 1.188 0 .43-.02.781-.043.781-.024 0-.203-.09-.399-.2-.195-.113-1.582-.886-3.082-1.726a886.977 886.977 0 0 1-3.515-1.965c-.434-.242-.84-.507-.907-.59-.113-.148-.187-9.863-.07-9.863.024 0 .32.168.656.375.711.438.91.461 1.223.145.43-.43.262-.828-.555-1.305-.77-.45-.78-.394.2-.91.453-.234 2.023-1.086 3.492-1.887 4.148-2.261 3.64-2.043 4.11-1.758M7.327 8.891C7.422 9.12 9.141 12 9.184 12c.027 0 .175-.254.324-.563.328-.671.207-.66 1.18-.105l.796.457.028 1.285.023 1.285-.656-.03c-.84-.04-.902-.286.543 2.206.265.461.484.871.484.914 0 .254.23-.078 1.043-1.488l.903-1.57-1.29-.055.004-1.285v-1.285l1.594-.875.277.484c.157.266.297.527.32.578.048.106.36-.246.544-.61.066-.128.41-.71.761-1.296.356-.582.63-1.07.61-1.086-.016-.016-.844-.059-1.84-.09l-1.809-.062.332.601c.356.64.38.715.25.715-.046 0-.414.188-.816.418l-.734.418-.614-.34c-.336-.187-.726-.41-.867-.496l-.254-.152.325-.54c.18-.292.324-.554.324-.578 0-.023-.824-.043-1.836-.043s-1.82.036-1.805.079"/>
    </symbol>
    
  </defs>
</svg>